<?xml version="1.0" standalone="no"?>
<!DOCTYPE svg PUBLIC "-//W3C//DTD SVG 1.1//EN" "http://www.w3.org/Graphics/SVG/1.1/DTD/svg11.dtd" >
<svg xmlns="http://www.w3.org/2000/svg">
<metadata>
This is a custom SVG webfont generated by Font Squirrel.
Copyright   : Copyright c Alexey Kryukov 2007 All rights reserved
Designer    : Alexey Kryukov
Foundry URL : httpwwwthessalonicaorgru
</metadata>
<defs>
<font id="webfontrLsVzr0o" horiz-adv-x="1150" >
<font-face units-per-em="2048" ascent="1579" descent="-469" />
<missing-glyph horiz-adv-x="526" />
<glyph unicode=" "  horiz-adv-x="526" />
<glyph unicode="&#x09;" horiz-adv-x="526" />
<glyph unicode="&#xa0;" horiz-adv-x="526" />
<glyph unicode="!" horiz-adv-x="526" d="M135 104q0 53 37 90t92 37q53 0 90 -36.5t37 -90.5q0 -55 -37 -92t-90 -37q-55 0 -92 37t-37 92zM145 1313q0 28 6.5 55.5t18.5 54.5q14 31 35 47q25 18 59 19q33 0 57.5 -18.5t36.5 -47.5q12 -28 18.5 -55.5t6.5 -54.5q0 -90 -31 -256q-23 -123 -37 -256l-22 -406h-57 l-23 406q-16 145 -37 258q-31 166 -31 254z" />
<glyph unicode="&#x22;" horiz-adv-x="878" d="M170 1382q0 45 24.5 76t69.5 31t69.5 -31t24.5 -76q0 -20 -10 -112l-55 -447h-57l-56 447q-10 92 -10 112zM545 1382q0 45 24.5 76t69.5 31t69.5 -31t24.5 -76q0 -20 -10 -112l-55 -447h-57l-56 447q-10 92 -10 112z" />
<glyph unicode="#" d="M61 430v96h215l84 408h-299v96h318l92 459h88l-92 -459h334l94 459h86l-92 -459h201v-96h-220l-84 -408h304v-96h-322l-88 -430h-88l88 430h-336l-86 -430h-88l86 430h-195zM365 526h333l84 408h-333z" />
<glyph unicode="$" d="M127 272q0 68 41 115q39 45 88 45q37 0 59 -20q27 -23 27 -56q0 -27 -12.5 -45t-36.5 -37q-37 -28 -37 -67q0 -72 92 -121t203 -49v631q-45 16 -125 55q-45 20 -109 63q-55 37 -92 80t-57 99q-25 68 -25 122q0 72 29 140q29 66 72 112t98 80q57 35 107 51q55 18 102 19 v123h72v-125q162 0 274.5 -96.5t112.5 -221.5q0 -63 -37 -108t-88 -45q-35 0 -64 22q-27 20 -26 60q0 33 47 96q29 39 28 70q0 55 -82 108q-78 51 -165 51v-596q213 -74 317 -182t104 -272q0 -172 -122 -287q-125 -115 -299 -115v-172h-72v172q-109 0 -203 37 q-98 39 -158 107q-63 73 -63 157zM266 1145q0 -51 23 -101q23 -47 63 -79q57 -45 88 -62q46 -25 111 -49v569q-57 0 -121 -32q-70 -37 -115 -99q-49 -67 -49 -147zM623 37q127 0 221 78t94 207q0 109 -84 182q-84 76 -231 135v-602z" />
<glyph unicode="%" horiz-adv-x="1538" d="M80 1130q0 86 35 173q31 78 100 133q66 53 147 53q80 0 146 -53q70 -55 100 -133q35 -86 35 -173q0 -88 -35 -174q-31 -78 -100 -133q-63 -51 -146 -51q-84 0 -147 51q-70 55 -100 133q-35 86 -35 174zM213 1130.5q0 -38.5 8 -104.5q8 -57 21 -100q14 -47 47 -80 q31 -31 74 -31t73 31q29 29 45 80q16 53 23 100q6 49 6 104.5t-6 104.5q-6 43 -23 98q-16 51 -45 80q-31 31 -74 31t-73 -31q-33 -33 -47 -80q-14 -43 -21 -98q-8 -66 -8 -104.5zM279 -16l884 1493h99l-887 -1493h-96zM897 330q0 88 35 174q31 78 100 133q63 51 145.5 51 t145.5 -51q72 -57 102 -133q35 -86 35 -174q0 -86 -35 -172q-33 -78 -102 -135q-63 -51 -145 -51.5t-146 51.5q-68 55 -100 135q-35 86 -35 172zM1030 329.5q0 -55.5 6 -104.5q6 -43 23 -98q16 -53 45 -82t74 -29t73 29q31 31 47 82q14 43 21 98q6 49 6 104.5t-6 104.5 q-8 57 -21 101q-14 47 -47 79q-29 29 -73.5 29t-73.5 -28.5t-45 -79.5q-16 -53 -23 -101q-6 -49 -6 -104.5z" />
<glyph unicode="&#x26;" horiz-adv-x="1619" d="M88 330q0 53 14 98q12 41 37 86q20 37 60 80q27 29 69 68q41 37 82 63l84 53l86 51q-59 145 -59 289q0 164 100 266q102 104 242 105q63 0 106 -21q49 -23 74 -53q27 -33 39 -69q14 -43 14 -74q0 -63 -24 -119q-29 -63 -74 -109q-57 -57 -102 -92q-35 -29 -134 -90 q143 -307 351 -563q84 90 141 188q53 92 53 168q0 41 -28 74q-27 31 -72 31h-78v63h481v-63q-76 0 -129 -41q-51 -39 -110 -158q-90 -180 -215 -311q156 -186 250 -187q53 0 90 13q25 8 82 39l26 -43q-59 -51 -123 -76q-61 -25 -143 -25q-166 0 -320 156 q-211 -156 -456 -156q-180 0 -297 98.5t-117 260.5zM287 399q0 -78 20 -137q20 -57 55 -96q29 -31 82 -60q43 -23 93 -32q41 -8 94 -8q127 0 284 110q-113 135 -210 289q-82 129 -162 307q-109 -63 -182.5 -161.5t-73.5 -211.5zM604 1206q0 -141 74 -293q84 55 129 95 q49 43 80 108q31 63 31 144q0 72 -33 116q-35 47 -107 47q-82 0 -127 -63q-47 -66 -47 -154z" />
<glyph unicode="'" horiz-adv-x="526" d="M170 1382q0 45 24.5 76t69.5 31t69.5 -31t24.5 -76q0 -20 -10 -112l-55 -447h-57l-56 447q-10 92 -10 112z" />
<glyph unicode="(" horiz-adv-x="759" d="M143 465q0 272 125 545q123 268 334 479l41 -41q-330 -383 -330 -983t330 -983l-41 -41q-211 211 -334 477q-125 273 -125 547z" />
<glyph unicode=")" horiz-adv-x="759" d="M117 -520q330 383 329 985q0 598 -329 981l41 43q211 -211 334 -479q125 -272 124 -545q0 -274 -124 -547q-123 -266 -334 -477z" />
<glyph unicode="*" horiz-adv-x="1103" d="M147 852q0 82 150 104q82 12 164 58q20 12 20 22q0 8 -4 13l-10 10l-6 2q-82 45 -164 57q-150 23 -150 105q0 29 23 55q23 25 59.5 25t63.5 -21q20 -16 59 -65q43 -53 125 -107q20 -14 31 -14q12 0 14 6q4 8 4 26q0 90 -30 170q-27 59 -27 95q0 39 22.5 67.5t61.5 28.5 t61.5 -28.5t22.5 -67.5q0 -31 -29 -95q-31 -80 -30 -170q0 -18 4 -26q4 -6 14 -6t31 14q82 53 125 107q39 49 59 65q27 20 63 21q39 0 60 -25q23 -27 22 -55q0 -83 -147 -105q-86 -12 -166 -57q-20 -12 -20 -25q0 -8 4 -12t12 -8l4 -2q80 -45 166 -58q147 -22 147 -104 q0 -29 -22.5 -55.5t-59.5 -26.5q-35 0 -63 23q-25 18 -59 63q-45 57 -125 109q-20 14 -30.5 14t-14.5 -8t-4 -27q0 -90 30 -170q29 -63 29 -92q0 -41 -23 -70q-20 -27 -61 -26.5t-61 26.5q-23 29 -23 70q0 33 27 92q31 80 30 170q0 18 -4 26.5t-14 8.5t-31 -14 q-80 -51 -125 -109q-35 -45 -59 -63q-29 -23 -64 -23q-37 0 -59.5 26.5t-22.5 55.5z" />
<glyph unicode="+" d="M61 467v94h461v467h109v-467h459v-94h-459v-467h-109v467h-461z" />
<glyph unicode="," horiz-adv-x="526" d="M127 -342q88 45 137 100q59 61 60 142q0 51 -33 77q-20 16 -72 21q-39 4 -63 29q-27 27 -27 67q0 45 33 78q31 31 78 31q72 0 120 -62q51 -63 52 -161q0 -57 -23 -117q-25 -63 -65 -115q-66 -78 -174 -129z" />
<glyph unicode="-" horiz-adv-x="899" d="M135 358v131h629v-131h-629z" />
<glyph unicode="." horiz-adv-x="526" d="M135 104q0 53 37 90t92 37q53 0 90 -36.5t37 -90.5q0 -55 -37 -92t-90 -37q-55 0 -92 37t-37 92z" />
<glyph unicode="/" horiz-adv-x="720" d="M88 -469l444 1929h103l-445 -1929h-102z" />
<glyph unicode="0" d="M68 729q0 92 14 176q14 82 43 172q27 82 72 160q43 74 98 129q59 59 127 90q72 33 153.5 33t153.5 -33t129 -90q55 -55 98 -129q45 -78 72 -160q25 -76 41 -172q14 -84 14 -176q0 -90 -14 -174q-16 -96 -41 -172q-27 -82 -72 -160t-98 -131t-129 -88q-72 -33 -153.5 -33 t-153.5 33t-127 88q-53 53 -98 131t-72 160q-29 90 -43 172q-14 84 -14 174zM272 729q0 -692 303 -692q305 0 306 692q0 694 -306 694q-303 0 -303 -694z" />
<glyph unicode="1" d="M203 1079l354 389h94v-1325q0 -80 21 -143h-191q20 63 21 143v1092q0 35 -27 35q-12 0 -26 -10q-12 -9 -31 -31l-174 -191z" />
<glyph unicode="2" d="M113 0v39q72 152 188 299q123 157 264 295l42.5 41t29.5 29.5t27 27.5q41 45 73 88q33 45 60 96q18 37 32 101q12 55 13 121q0 117 -74 202q-72 84 -203 84q-119 0 -182 -45q-66 -47 -66 -110q0 -31 31 -57.5t43 -49t12 -53.5q0 -41 -28 -76q-27 -33 -74 -33 q-59 0 -98 43q-39 41 -39 119q0 89 61 166q61 76 164 119q104 43 223 43q96 0 176 -31q84 -33 130 -78q51 -51 77.5 -110.5t26.5 -124.5q0 -57 -10 -96q-12 -47 -29 -86q-16 -41 -45 -80q-35 -49 -53 -70q-25 -28 -68 -68l-72 -63l-75 -61q-287 -229 -402 -455h563 q27 0 43 8q18 10 27 21q14 23 19 28q35 68 43 127q6 47 32 47q18 0 25 -16q6 -18 6 -35q0 -52 -18 -110l-72 -236h-823z" />
<glyph unicode="3" d="M125 258q0 47 22.5 75.5t65.5 28.5q29 0 47 -12q20 -14 29 -33q12 -29 14 -41q0 -4 2 -13l4 -18t2 -18q25 -190 224 -190q156 0 235 98q78 96 78 273q0 154 -78 247q-76 90 -219 90q-33 0 -74 -10q-47 -10 -61 -10q-20 0 -39 14q-16 12 -16.5 39t16 39t39 12t61.5 -8 q41 -10 74 -10q125 0 194.5 94t69.5 246q0 131 -67 201q-70 72 -189 71q-117 0 -180 -49q-66 -49 -66 -106q0 -35 29 -64q23 -18 33 -41q10 -20 10 -49t-24.5 -53.5t-63.5 -24.5q-55 0 -92 41t-37 97q0 123 114.5 219t292.5 96q94 0 175 -31q86 -33 131 -78q51 -51 75 -106 q27 -59 27 -123q0 -139 -86 -227q-88 -92 -225 -131v-11q154 -25 252 -129t98 -245q0 -199 -133 -318t-350 -119q-180 0 -299 84q-115 82 -115 203z" />
<glyph unicode="4" d="M72 451v61l686 956h67v-911h144q80 0 143 21v-148q-63 20 -143 21h-144v-308q0 -80 21 -143h-191q20 63 21 143v308h-604zM174 557h502v703z" />
<glyph unicode="5" d="M78 219q0 41 20 68q23 29 56 28q45 0 63 -18q16 -16 47 -74q45 -88 107 -133q59 -43 151 -43t164 37q71 37 111 98q41 63 59 129q20 76 21 144q0 178 -107 290q-104 111 -293 111q-133 0 -246 -63h-28l39 667h555q39 0 53 15q15 15 24 43q8 37 23 53q12 14 29 14 q31 0 30 -33q0 -27 -22 -94l-55 -164h-574l-16 -307l6 -4q98 37 205 37q119 0 205 -29q90 -31 149 -80q57 -47 98 -114q40 -65 56 -135q16 -76 16 -144q0 -154 -68 -278q-68 -126 -190 -197q-125 -72 -281 -72q-168 0 -288 78q-119 76 -119 170z" />
<glyph unicode="6" d="M123 575q0 144 43 277q41 127 123 238q78 106 178 188q101 83 215 135q119 55 236 76l16 -57q-236 -74 -393.5 -236t-216.5 -408l20 -8q117 119 277 119q129 0 225 -57.5t145 -155.5q51 -102 51 -217q0 -219 -129 -358.5t-319 -139.5q-92 0 -180 41t-152 117 q-68 80 -102 190q-37 117 -37 256zM301 453q0 -108 25 -191q25 -84 65 -127q47 -51 90 -69q51 -23 105 -23q115 0 194 111q82 113 82 303q0 170 -73.5 274.5t-208.5 104.5q-106 0 -192.5 -108.5t-86.5 -274.5z" />
<glyph unicode="7" d="M174 1108q0 20 16 80l80 272h777v-69q-252 -715 -355 -1391h-231v41l495 1253h-555q-33 0 -57.5 -10t-44.5 -37q-29 -39 -57 -131q-12 -41 -37 -41q-31 0 -31 33z" />
<glyph unicode="8" d="M109 332q0 68 28 123q31 59 82 104q55 49 111 84q58 37 129 68v10q-147 88 -211 172q-66 88 -66 221q0 164 123 268q125 106 293 107q109 0 203 -41q92 -41 151 -115q59 -76 60 -170q0 -66 -23 -116q-25 -53 -67 -101q-35 -37 -95 -82q-37 -29 -116 -69v-9 q84 -41 137 -75q55 -37 102 -84q51 -51 72 -109q23 -63 22 -137q0 -117 -65 -213q-63 -92 -168 -145q-102 -51 -227 -51.5t-236 40.5q-104 39 -174 125q-65 80 -65 195zM279 342q0 -80 26 -139q29 -66 72 -97q49 -37 100 -53q49 -16 115 -16q137 0 231 82q96 84 97 205 q0 45 -13 77q-10 27 -37 62q-22 28 -67 61q-16 12 -92 58q-20 12 -127 69l-68 35q-106 -51 -174 -141q-63 -84 -63 -203zM303 1171q0 -53 29 -106q29 -55 82 -98q53 -45 108 -78q74 -45 131 -74q63 39 117 88q47 43 72 109q27 70 26 143q0 113 -82 193q-86 82 -196 82 q-115 0 -201 -74t-86 -185z" />
<glyph unicode="9" d="M111 989q0 225 127 361q129 139 321 139q92 0 180 -41q84 -39 150 -117q68 -80 102 -192q39 -123 39 -254q0 -137 -45 -277q-43 -131 -121 -237.5t-178 -188.5q-98 -80 -217 -135t-236 -76l-16 58q236 74 393 235q162 164 219 408l-22 8q-117 -121 -275 -121 q-125 0 -225 59q-98 59 -147 156q-49 98 -49 215zM291 1004q0 -172 71 -275q74 -104 211 -104q106 0 193 108q84 104 84 275q0 106 -25 188q-25 86 -65 129q-47 51 -90 70q-51 23 -105 22q-115 0 -194.5 -110t-79.5 -303z" />
<glyph unicode=":" horiz-adv-x="526" d="M135 788q0 53 37 90t92 37q53 0 90 -36.5t37 -90.5q0 -55 -37 -92t-90 -37q-55 0 -92 37t-37 92zM135 104q0 53 37 90t92 37q53 0 90 -36.5t37 -90.5q0 -55 -37 -92t-90 -37q-55 0 -92 37t-37 92z" />
<glyph unicode=";" horiz-adv-x="526" d="M127 -342q88 45 137 100q59 61 60 142q0 51 -33 77q-20 16 -72 21q-39 4 -63 29q-27 27 -27 67q0 45 33 78q31 31 78 31q72 0 120 -62q51 -63 52 -161q0 -57 -23 -117q-25 -63 -65 -115q-66 -78 -174 -129zM135 788q0 53 37 90t92 37q53 0 90 -36.5t37 -90.5 q0 -55 -37 -92t-90 -37q-55 0 -92 37t-37 92z" />
<glyph unicode="&#x3c;" d="M84 467v94l940 492l43 -88l-868 -451l868 -451l-43 -88z" />
<glyph unicode="=" d="M61 309v97h1029v-97h-1029zM61 623v96h1029v-96h-1029z" />
<glyph unicode="&#x3e;" d="M84 63l868 451l-868 451l43 88l940 -492v-94l-940 -492z" />
<glyph unicode="?" horiz-adv-x="851" d="M111 1370q0 61 51 88q57 31 125 31q80 0 172 -31q80 -27 145 -82q59 -51 98 -137q37 -83 37 -184q0 -78 -20 -131q-23 -55 -66 -90q-45 -35 -98 -54q-49 -16 -127 -26q-51 -6 -69.5 -31t-18.5 -88v-295h-72v469q0 51 19 65q20 16 92 17q272 0 272 201q0 96 -57 161 q-57 68 -152 68q-46 0 -98 -18q-74 -25 -106 -25q-49 0 -88 20.5t-39 71.5zM168 104q0 53 37 90t92 37q53 0 90 -36.5t37 -90.5q0 -55 -37 -92t-90 -37q-55 0 -92 37t-37 92z" />
<glyph unicode="@" horiz-adv-x="1918" d="M106 344q0 178 62 338q63 164 162 274q104 117 231 199q131 84 270 127q135 41 275 41q147 0 258 -35q123 -39 201 -96q82 -61 139 -139q55 -76 84 -168q27 -86 27 -180q0 -133 -43 -250q-47 -129 -111 -203q-76 -88 -158 -146q-88 -61 -182 -92q-92 -31 -180 -30 q-68 0 -111 55q-45 57 -47 131l-8 2q-27 -33 -80 -78q-37 -33 -117 -74q-70 -37 -131 -36q-16 0 -49 8q-31 8 -55 22q-31 18 -47 56q-20 45 -21 94q0 104 60 233q61 133 145 232q88 102 202.5 173.5t217.5 71.5q68 0 100 -45q35 -47 41 -118l19 -4l73 155l187 12l-310 -557 q-57 -104 -57 -161q0 -27 21 -62q18 -31 63 -31q57 0 119 25q55 23 123 80q66 55 112 127q49 74 80 180.5t31 233.5q0 117 -39 213q-39 94 -115 174q-74 78 -192 121q-117 43 -266 43q-106 0 -230 -41q-115 -39 -229 -121q-115 -84 -201 -187q-94 -113 -143 -254 q-53 -150 -54 -307q0 -127 33 -248q29 -111 90 -192q59 -82 137 -135.5t175 -81.5q92 -27 202 -27q178 0 362.5 74t283.5 160l36 -58q-119 -100 -315.5 -169.5t-392.5 -69.5q-109 0 -219 28q-106 27 -201 88q-90 59 -164 148q-70 84 -113 209q-41 116 -41 268zM629 139 q0 -92 71 -92q139 0 342 283q61 86 99 176q41 98 41 158q0 147 -99 147q-47 0 -104 -39q-59 -39 -96 -82q-29 -33 -88 -115q-70 -98 -117 -213q-49 -121 -49 -223z" />
<glyph unicode="A" horiz-adv-x="1622" d="M88 -2v65h23q74 0 127 50q51 49 88 145l446 1194l164 37l412 -1204q8 -20 21 -50t15 -36q10 -25 35 -68q20 -37 45 -51q27 -16 52 -17h71v-65q-53 0 -124.5 2t-153.5 2q-96 0 -188.5 -2t-155.5 -2v65h139q31 0 57 23q25 20 25 57q0 27 -17 72l-106 326h-539l-94 -258 q-29 -76 -29 -125q0 -94 187 -95v-65q-41 0 -108.5 2t-143.5 2q-74 0 -141.5 -2t-106.5 -2zM555 616h481l-227 684z" />
<glyph unicode="B" horiz-adv-x="1398" d="M127 -2v65h125q78 0 78 80v1180q0 80 -78 80q-39 0 -125 -6v63q238 20 510 21q129 0 252 -23q121 -23 172 -53q100 -59 149 -135q49 -74 50 -168q0 -131 -93 -219q-90 -88 -252 -119v-4q152 -18 254 -90q72 -53 109 -123q39 -74 39 -158q0 -88 -41 -166 q-39 -76 -109 -129q-59 -47 -149 -71q-88 -25 -176 -25h-125q-43 0 -123 2t-172 2q-90 0 -170 -2t-125 -2zM514 156q0 -80 78 -80h203q74 0 137 24q68 25 102 76q66 90 66 207q0 168 -109 264q-86 74 -231 74h-246v-565zM514 797h242q72 0 133 26q63 27 102 76q35 43 51 94 q14 43 15 113q0 123 -92 209q-100 90 -303 90q-98 0 -148 -8v-600z" />
<glyph unicode="C" horiz-adv-x="1466" d="M143 721q0 348 213 567q92 95 215 148q125 53 260 53q129 0 240 -43q88 -35 127 -35q28 0 43 19q12 16 27 59h49l67 -340l-59 -29q-94 131 -203 201q-113 72 -258 72q-135 0 -243 -66q-104 -63 -172 -182q-49 -88 -64 -182q-16 -104 -16 -228q0 -354 172 -526 q74 -74 155 -107q88 -35 166 -34q152 0 273 75q113 72 206 203l48 -37q-76 -145 -215.5 -241.5t-305.5 -96.5q-281 0 -469 164q-121 106 -186 258q-70 158 -70 328z" />
<glyph unicode="D" horiz-adv-x="1662" d="M127 -2v65h125q78 0 78 80v1178q0 82 -78 82q-59 0 -123 -6l-2 63q223 20 434 21q106 0 148 -2q61 -3 147 -13q80 -8 154 -28q84 -23 141 -49q76 -35 133 -80q129 -101 203 -252q74 -152 74 -328q0 -180 -66 -330q-63 -143 -184 -243q-199 -158 -473 -158h-121 q-43 0 -123 2t-172 2q-90 0 -170 -2t-125 -2zM514 156q0 -80 78 -80h244q500 0 499 653q0 160 -45 297q-47 143 -145 234q-94 84 -213 114q-120 31 -270 31q-76 0 -113 -27q-35 -25 -35 -100v-1122z" />
<glyph unicode="E" horiz-adv-x="1458" d="M127 -2v65h125q78 0 78 80v1174q0 80 -78 80h-125v65q45 0 125 -2t170 -2q92 0 172 2t123 2h512l114 -313l-59 -29q-16 27 -74 103q-43 55 -94 88q-113 74 -244 73h-280q-78 0 -78 -79v-508h223q94 0 152 57q59 59 67 182h60v-557h-60q-16 242 -219 242h-223v-565 q0 -80 78 -80h364q70 0 142 22q63 20 106 64q49 51 84 117q41 76 60 127l63 -21l-90 -387h-604q-43 0 -123 2t-172 2q-90 0 -170 -2t-125 -2z" />
<glyph unicode="F" horiz-adv-x="1374" d="M127 -2v65h125q78 0 78 80v1174q0 80 -78 80h-125v65q45 0 125 -2t170 -2q92 0 172 2t123 2h512l114 -313l-59 -29q-16 27 -74 103q-43 55 -94 88q-113 74 -244 73h-280q-78 0 -78 -79v-508h223q94 0 152 57q59 59 67 182h60v-557h-60q-16 242 -219 242h-223v-578 q0 -80 78 -80h125v-65q-43 0 -123 2t-172 2q-90 0 -170 -2t-125 -2z" />
<glyph unicode="G" horiz-adv-x="1638" d="M143 721q0 348 213 567q92 95 215 148q125 53 260 53q129 0 240 -43q88 -35 127 -35q28 0 43 19q12 16 27 59h49l67 -340l-59 -29q-94 131 -203 201q-113 72 -258 72q-135 0 -243 -66q-104 -63 -172 -182q-49 -88 -64 -182q-16 -104 -16 -228q0 -354 172 -526 q74 -74 155 -107q88 -35 166 -34q340 0 340 243v217q-2 37 -22 60q-18 20 -56 20h-125v64h588v-64h-123q-78 0 -78 -80v-548h-63q-6 82 -57 81q-37 0 -127 -36q-129 -53 -271 -54q-281 0 -469 164q-121 106 -186 258q-70 158 -70 328z" />
<glyph unicode="H" horiz-adv-x="1675" d="M127 -2v65h125q78 0 78 80v1174q0 80 -78 80h-125v65q45 0 125 -2t170 -2q92 0 172 2t123 2v-65h-125q-78 0 -78 -80v-533h688v533q0 80 -78 80h-125v65q43 0 123 -2t172 -2q90 0 170 2t123 2v-65h-123q-78 0 -78 -80v-1174q0 -80 78 -80h123v-65q-43 0 -123 2t-170 2 q-92 0 -172 -2t-123 -2v65h125q78 0 78 80v566h-688v-566q0 -80 78 -80h125v-65q-43 0 -123 2t-172 2q-90 0 -170 -2t-125 -2z" />
<glyph unicode="I" horiz-adv-x="802" d="M127 -2v65h125q78 0 78 80v1174q0 80 -78 80h-125v65q45 0 125 -2t170 -2q92 0 172 2t123 2v-65h-125q-78 0 -78 -80v-1174q0 -80 78 -80h125v-65q-43 0 -123 2t-172 2q-90 0 -170 -2t-125 -2z" />
<glyph unicode="J" horiz-adv-x="778" d="M-121 -303q0 41 29 74q27 29 63 28q57 0 107 -51q33 -29 53 -41q18 -10 53 -10q41 0 76 22q31 18 47 64q23 63 23 188q0 88 -2 105q-2 14 -2 80v1161q0 80 -78 80h-123v65q43 0 123 -2t170 -2q92 0 172 2t123 2v-65h-125q-78 0 -78 -80v-1108q0 -16 -4 -78 q-2 -18 -14 -119q-10 -76 -33 -147.5t-60 -130.5q-125 -205 -315 -205q-94 0 -147 45q-58 47 -58 123z" />
<glyph unicode="K" horiz-adv-x="1558" d="M127 -2v65h125q78 0 78 80v1174q0 80 -78 80h-125v65q45 0 125 -2t170 -2q92 0 172 2t123 2v-65h-125q-78 0 -78 -80v-594l303 272l115 107q53 51 123 133q63 76 63 106q0 35 -43 52l-45 4h-39v65q39 0 102.5 -2t139.5 -2q74 0 137.5 2t102.5 2v-65q-74 0 -87 -6 q-49 -23 -126 -86q-63 -53 -199 -185l-236 -227l465 -713q41 -66 86 -90q49 -27 127 -27v-65q-53 0 -133 2t-170 2q-92 0 -172 -2t-131 -2v65h55q59 0 92 17q29 14 29 41q0 18 -16 55q-12 29 -64 113l-303 479l-176 -156v-469q0 -80 78 -80h125v-65q-43 0 -123 2t-172 2 q-90 0 -170 -2t-125 -2z" />
<glyph unicode="L" horiz-adv-x="1458" d="M127 -2v65h125q78 0 78 80v1174q0 80 -78 80h-125v65q45 0 125 -2t170 -2q92 0 172 2t123 2v-65h-125q-78 0 -78 -80v-1161q0 -80 78 -80h364q70 0 142 22q63 20 106 64q49 51 84 117q41 76 60 127l63 -21l-90 -387h-604q-43 0 -123 2t-172 2q-90 0 -170 -2t-125 -2z" />
<glyph unicode="M" horiz-adv-x="1951" d="M127 -2v65h88q53 0 84 31t31 86v1137q0 80 -78 80h-125v63h428l430 -1130l445 1130h434v-63h-129q-72 0 -72 -80v-1174q0 -80 78 -80h123v-65q-43 0 -123 2t-170 2q-92 0 -172 -2t-123 -2v65h125q78 0 78 80v1125h-31l-494 -1241h-41l-483 1245h-12v-1092q0 -55 30.5 -86 t83.5 -31h89v-65q-37 0 -107 2t-139 2q-72 0 -141.5 -2t-106.5 -2z" />
<glyph unicode="N" horiz-adv-x="1638" d="M127 -2v65h88q53 0 84 31t31 86v1137q0 80 -78 80h-125v63h377l776 -1124v944q0 55 -30.5 86t-84.5 31h-88v65q37 0 106.5 -2t139.5 -2q72 0 141.5 2t106.5 2v-65h-88q-53 0 -84 -31t-31 -86v-1305h-74l-876 1258v-1053q0 -55 30.5 -86t83.5 -31h89v-65q-37 0 -107 2 t-139 2q-72 0 -141.5 -2t-106.5 -2z" />
<glyph unicode="O" horiz-adv-x="1611" d="M143 729q0 193 56 330q55 139 172 256q80 82 200 127q123 47 254 47q133 0 256 -47q119 -45 201 -127q113 -113 170 -256q55 -137 55 -330q0 -188 -55 -328q-57 -143 -170 -256q-82 -80 -201 -127q-123 -47 -256 -47q-131 0 -254 47q-121 47 -200 127 q-117 117 -172.5 256.5t-55.5 327.5zM369 729q0 -174 28 -315q31 -147 92 -219q139 -158 336 -158t336 158q61 72 92 219q31 152 31 315q0 168 -31 318q-31 147 -92 219q-139 158 -335.5 157.5t-336.5 -157.5q-61 -72 -92 -219q-28 -142 -28 -318z" />
<glyph unicode="P" horiz-adv-x="1318" d="M127 -2v65h125q78 0 78 80v1180q0 41 -21 59q-25 20 -59 21q-55 0 -123 -6v63q199 14 250 17q106 4 241 4q258 0 388 -56q127 -53 190 -151q63 -100 64 -205q0 -207 -189 -336q-74 -49 -197 -71q-125 -23 -231 -23h-129v-496q0 -80 78 -80h125v-65q-43 0 -123 2t-172 2 q-90 0 -170 -2t-125 -2zM514 717h154q90 0 147 16q70 20 123 55q55 37 86 107q33 76 33 168q0 160 -103 252q-104 94 -311 94q-88 0 -129 -8v-684z" />
<glyph unicode="Q" horiz-adv-x="1611" d="M143 729q0 193 56 330q55 139 172 256q80 82 200 127q123 47 254 47q133 0 256 -47q119 -45 201 -127q113 -113 170 -256q55 -137 55 -330q0 -188 -55 -328q-57 -143 -170 -256q-88 -88 -229 -139q-59 -23 -148 -65q-70 -35 -127 -78v-8q37 -23 109 -56l92 -39 q16 -6 80 -22q49 -12 94 -12q197 0 313 202l33 -24q-45 -135 -151 -232q-106 -98 -232 -98q-72 0 -158 25q-84 25 -161 67q-31 16 -101 49q-31 14 -61 15q-41 0 -109 -80q-25 -31 -57 -58q-23 -18 -49 -18q-31 0 -49 16q-20 18 -21 48q0 45 29 69q27 25 90 49 q152 59 215 101q100 63 178 106l-4 8q-313 0 -487 174q-117 117 -172.5 256.5t-55.5 327.5zM369 729q0 -174 28 -315q31 -147 92 -219q139 -158 336 -158t336 158q61 72 92 219q31 152 31 315q0 168 -31 318q-31 147 -92 219q-139 158 -335.5 157.5t-336.5 -157.5 q-61 -72 -92 -219q-28 -142 -28 -318z" />
<glyph unicode="R" horiz-adv-x="1599" d="M127 -2v65h125q78 0 78 80v1178q0 39 -19 61q-18 20 -71 21q-47 0 -113 -6v63q238 20 467 21q190 0 301 -19q115 -18 205 -65q94 -49 145 -135t51 -177q0 -84 -47 -161q-43 -72 -141 -129.5t-229 -79.5v-13l393 -487q31 -37 51 -55q23 -20 63 -45q84 -51 187 -52v-63 h-414l-434 655q-16 25 -31 31q-20 10 -53 10h-127v-553q0 -80 78 -80h125v-65q-43 0 -123 2t-172 2q-90 0 -170 -2t-125 -2zM514 772h225q160 0 256.5 71.5t96.5 223.5q0 96 -43 164q-41 66 -129 119q-96 59 -281 59q-70 0 -125 -8v-629z" />
<glyph unicode="S" horiz-adv-x="1318" d="M121 410l65 22q70 -104 156 -180q33 -31 100 -86q41 -35 86 -60q47 -27 101 -38q52 -12 116 -13q47 0 103 11q49 9 92 30q45 23 76 54q35 35 53 84t18 114q0 45 -12 82q-12 39 -31 66q-23 35 -49 55q-14 12 -63 41q-23 14 -76 35q-43 16 -78 26l-86 25q-74 20 -145 47 q-61 23 -131 61q-68 37 -111 80q-47 47 -73.5 106.5t-26.5 137.5q0 90 41 160q43 72 110 119q78 53 152 73q94 27 172 27q90 0 186 -31q111 -37 142 -37q45 0 79 68h56l45 -342l-64 -23q-47 70 -92 119q-43 46 -110 86q-66 41 -119 55q-59 16 -135 17q-132 0 -209 -68 q-78 -68 -78 -205q0 -55 22 -94q27 -45 62 -71q47 -35 92 -56q47 -20 105 -39q55 -18 114 -28q90 -18 170 -56q86 -39 148 -90q74 -61 110 -131q39 -76 39 -170q0 -92 -28.5 -161.5t-82 -119t-114.5 -77.5q-68 -31 -135.5 -43t-139.5 -12q-74 0 -129 12q-47 10 -125 49 q-57 29 -73 35q-23 8 -45 8q-27 0 -54 -27q-31 -31 -51 -73h-59z" />
<glyph unicode="T" horiz-adv-x="1570" d="M109 1141l69 319h1256l69 -319l-59 -29q-23 47 -66 110.5t-80 94.5q-94 80 -225 80h-176v-1254q0 -80 80 -80h135v-65q-51 0 -131 2t-174 2q-96 0 -176 -2t-131 -2v65h137q78 0 78 80v1254h-176q-129 0 -226 -80q-31 -27 -77 -94q-49 -74 -68 -111z" />
<glyph unicode="U" horiz-adv-x="1699" d="M127 1397v65q45 0 125 -2t170 -2q92 0 172 2t123 2v-65h-125q-78 0 -78 -80v-901q0 -84 33 -162q35 -82 100 -129q119 -88 271 -88q82 0 161 31q72 29 140 88q61 58 92 141q31 84 30 164v856q0 80 -77 80h-123v65h7t16.5 -1t23.5 -1t47 -1t55 -1h96h97q20 0 54 1t46 1 t23.5 1t17.5 1h8v-65h-125q-78 0 -77 -80v-834q0 -94 -37 -202q-37 -106 -113 -175q-66 -59 -162 -98q-92 -37 -200 -37q-276 0 -433 133q-76 68 -114 156q-41 94 -41 197v860q0 80 -78 80h-125z" />
<glyph unicode="V" horiz-adv-x="1638" d="M63 1397v65q59 0 139.5 -2t174.5 -2t174 2t137 2v-65h-119q-31 0 -57.5 -22.5t-26.5 -57.5q0 -45 15 -74l415 -997l347 932q27 76 26 125q0 94 -184 94v65q41 0 110.5 -2t139 -2t139.5 2t111 2v-65h-23q-74 0 -127 -49q-51 -49 -88 -146l-455 -1216h-84l-497 1190l-29 67 q-2 4 -12 25.5t-17 34.5q-12 20 -34 49q-15 18 -37 30q-25 14 -45 15h-93z" />
<glyph unicode="W" horiz-adv-x="2322" d="M63 1397v65q59 0 139.5 -2t174.5 -2t174 2t137 2v-65h-121q-31 0 -55 -21q-23 -18 -23 -55q0 -39 13 -78l317 -975l324 860l-17 50q-8 27 -28 84q-8 23 -33 67q-20 37 -43 51q-27 16 -57 17h-84v65q57 0 137 -2t174 -2t174 2t137 2v-65h-127q-35 0 -59.5 -24.5 t-24.5 -69.5q0 -27 27 -127l297 -908l342 914q27 74 27 125q0 90 -185 90v65q39 0 106.5 -2t137.5 -2t137.5 2t106.5 2v-65h-11q-49 0 -82 -13q-35 -12 -69 -53q-35 -39 -66 -125l-465 -1220h-86l-323 1005l-387 -1005h-84l-385 1194q-68 217 -174 217h-93z" />
<glyph unicode="X" horiz-adv-x="1591" d="M88 -2v65q86 0 160 37q76 37 121 99l391 526l-361 551q-27 39 -69 76q-57 45 -117 45h-53v65q55 0 133 -2t180 -2q104 0 184 2t136 2v-65h-99q-35 0 -63 -23q-27 -20 -27 -53q0 -31 19 -55l254 -385l239 321q55 74 55 129q0 25 -12 39q-14 18 -37 21q-29 6 -118 6v65 q39 0 108.5 -2t155.5 -2t155.5 2t108.5 2v-65q-174 0 -248 -99l-362 -487l405 -618q35 -51 76 -87q39 -29 51 -32q25 -10 57 -11h45v-65q-57 0 -135 2t-182 2q-102 0 -180 -2t-135 -2v65h108q35 0 60 25q27 27 26 57q0 35 -12 54l-297 454l-262 -354q-49 -66 -49 -125 q0 -35 26 -74q25 -37 74 -37h78v-65q-55 0 -129 2t-166 2t-166 -2t-127 -2z" />
<glyph unicode="Y" horiz-adv-x="1599" d="M92 1397v65q59 0 141 -2t170 -2q90 0 172 2t142 2v-65h-121q-33 0 -59.5 -22.5t-26.5 -57.5q0 -41 16 -74l328 -676l350 598q35 57 35 123q0 47 -39 78q-41 31 -133 31v65q41 0 108.5 -2t145.5 -2q74 0 141.5 2t106.5 2v-65h-23q-70 0 -119 -49q-51 -49 -108 -146 l-424 -715v-342q0 -80 78 -79h135v-66q-49 0 -129 2t-176 2t-176 -2t-131 -2v66h137q78 0 78 79v334l-387 778q-37 76 -72 107q-37 33 -84 33h-76z" />
<glyph unicode="Z" horiz-adv-x="1411" d="M88 0v47l1006 1337h-416q-147 0 -256 -81q-111 -80 -229 -263l-62 27l176 393h1028v-49l-995 -1335h557q137 0 223 86q80 80 131 223l64 -20l-78 -365h-1149z" />
<glyph unicode="[" horiz-adv-x="778" d="M231 -537v1997h453v-55h-213q-51 0 -74 -23q-18 -18 -18 -73v-1690q0 -55 20 -76q23 -23 72 -22h213v-58h-453z" />
<glyph unicode="\" horiz-adv-x="720" d="M88 1460h102l445 -1929h-103z" />
<glyph unicode="]" horiz-adv-x="778" d="M96 -479h211q55 0 76 20q18 18 18 74v1690q0 57 -20 77q-23 23 -74 23h-211v55h453v-1997h-453v58z" />
<glyph unicode="^" d="M43 897l494 567h79l492 -563l-43 -45l-490 440l-487 -440z" />
<glyph unicode="_" horiz-adv-x="1024" d="M0 -256h1024v-96h-1024v96z" />
<glyph unicode="`" horiz-adv-x="878" d="M166 1415q0 29 22.5 51.5t55.5 22.5q72 0 118 -125l119 -334l-43 -22l-209 276q-63 84 -63 131z" />
<glyph unicode="&#x2cb;" horiz-adv-x="878" d="M166 1415q0 29 22.5 51.5t55.5 22.5q72 0 118 -125l119 -334l-43 -22l-209 276q-63 84 -63 131z" />
<glyph unicode="a" horiz-adv-x="1028" d="M104 176q0 53 17 92q16 37 47 72q28 31 68 55q45 27 79 41q74 29 88 33q125 39 254 39v160q0 72 -51 133q-49 57 -119 57q-96 0 -139 -53q-27 -33 -39 -98q-6 -25 -24 -48q-18 -20 -54 -20q-39 0 -63 25q-27 27 -27 61q0 82 105 137q100 53 237 53q111 0 193 -49 q55 -33 88 -88q33 -53 33 -125v-434q0 -47 18.5 -84t52.5 -37q49 0 97 66l32 -19q-82 -162 -206 -161q-39 0 -78 34q-35 31 -51 76l-13 -4q-49 -39 -131 -72q-88 -35 -168 -34q-113 0 -176 47q-70 51 -70 145zM274 186q0 -61 39 -94q41 -35 103 -35q70 0 125 25 q47 20 116 70v309q-156 -4 -270 -66q-51 -27 -82 -80q-31 -52 -31 -129z" />
<glyph unicode="b" horiz-adv-x="1093" d="M23 1346v45l266 88h30v-682l9 -6q57 47 143 90q70 35 137 34q86 0 152 -22q70 -25 110 -66q139 -143 140 -335q0 -213 -103 -357q-111 -152 -317 -151q-31 0 -86 12t-92 31q-76 39 -99 39q-39 0 -84 -74h-49v1272q0 66 -63 71zM319 135q53 -39 123 -61q74 -25 115 -25 q61 0 116.5 24.5t86.5 67.5q45 61 61 131q18 76 19 146q0 74 -2 98q-2 35 -19 94q-14 53 -47 103q-76 111 -213 110q-119 0 -240 -108v-580z" />
<glyph unicode="c" horiz-adv-x="946" d="M84 436q0 205 131 342q125 137 297 137q123 0 203 -43q61 -33 102 -81q39 -47 39 -89q0 -43 -22 -65q-25 -25 -64 -25q-33 0 -61 25q-25 23 -35 59q-16 63 -35 88q-43 57 -107 58q-129 0 -202 -109q-76 -111 -76 -276q0 -174 80 -279q78 -102 227 -102q72 0 141 41 q68 41 109 96l37 -37q-49 -76 -133 -133q-86 -59 -183 -59q-186 0 -311 112q-137 119 -137 340z" />
<glyph unicode="d" horiz-adv-x="1107" d="M84 410q0 213 102 356q111 150 318 149q59 0 127 -22q78 -27 135 -64l8 7v428q0 66 -63 71l-95 11v45l267 88h30v-1329q0 -45 31 -64q35 -20 105 -20v-58l-275 -16v114l-6 5q-68 -55 -141 -91q-77 -37 -142 -36q-80 0 -151.5 24.5t-110.5 63.5q-139 143 -139 338z M254 481q0 -74 2 -98q2 -35 18 -94q14 -53 48 -103q76 -111 213 -110q117 0 239 110v578q-51 37 -121 63q-59 23 -116 23q-66 0 -117 -23q-55 -25 -86 -67q-41 -57 -60 -131q-20 -87 -20 -148z" />
<glyph unicode="e" horiz-adv-x="952" d="M84 436q0 207 129 340q139 139 299 139q82 0 145 -22q61 -22 117 -80q94 -100 113 -285h-629q-4 -41 -4 -71q0 -174 80 -279q78 -102 227 -102q72 0 141 41q68 41 109 96l37 -37q-49 -76 -133 -133q-86 -59 -183 -59q-186 0 -311 112q-137 119 -137 340zM266 586h473 q-6 96 -65 178q-57 78 -142 78q-100 0 -170 -70q-71 -71 -96 -186z" />
<glyph unicode="f" horiz-adv-x="714" d="M74 836q0 47 8 63h158v68q0 77 18 166q18 90 61 157q61 96 140 140q84 47 180 47q82 0 125 -37t43 -90q0 -39 -26.5 -61.5t-65.5 -22.5q-47 0 -92 57q-35 41 -82 41q-82 0 -127 -86q-33 -59 -33 -217v-162h194q0 -47 -8 -63h-186v-727q0 -51 49 -52h109v-59 q-35 0 -98.5 2t-131.5 2q-66 0 -129 -2t-98 -2v59h108q49 0 50 52v727h-166z" />
<glyph unicode="g" horiz-adv-x="1218" d="M117 -322q0 63 78 127q76 61 196 103v6q-139 33 -196 80q-51 43 -52 102q0 113 195 193q-84 43 -137 117q-51 72 -51 169q0 152 118.5 246t286.5 94q190 0 307 -110q123 111 207 110q45 0 76 -34q31 -33 31 -76q0 -33 -18.5 -51.5t-45.5 -18.5q-37 0 -63 39 q-23 41 -62 41q-45 0 -98 -41q72 -88 72 -199q0 -102 -60 -180q-61 -80 -147 -114q-98 -39 -199 -39q-82 0 -172 28q-139 -53 -139 -118q0 -33 32 -62q29 -25 91 -45q49 -16 108 -27q43 -8 119 -18q12 -2 29.5 -4t30 -3t22.5 -3q12 -2 39.5 -8.5t44.5 -8.5q49 -10 86 -22 q34 -12 74 -31q39 -18 63.5 -42.5t38.5 -57.5q16 -37 16 -74q0 -58 -30 -104q-31 -47 -76 -74q-53 -33 -111 -49q-55 -16 -123 -27q-55 -8 -120 -8q-96 0 -162 8q-86 10 -146 29q-76 23 -112 59q-41 41 -41 98zM287 -287q0 -47 26 -80q29 -35 72 -53q47 -20 96 -29 q57 -10 109 -10q328 0 328 172q0 25 -9 41q-6 12 -22 33q-10 12 -41 27q-41 18 -49 20l-64 16q-45 10 -69 13q-29 4 -80 12q-74 10 -111 19q-76 -20 -131 -67.5t-55 -113.5zM299 575q0 -123 72 -200q70 -76 184.5 -76t183.5 76q72 78 72 200q0 121 -72 203q-71 80 -184 80 t-184 -80q-72 -82 -72 -203z" />
<glyph unicode="h" horiz-adv-x="1153" d="M68 -2v59h108q49 0 49 52v1155q0 66 -63 71l-94 11v45l266 88h33v-717l6 -6q68 68 143 110q86 49 158 49q121 0 190 -61q88 -82 88 -221v-524q0 -51 49 -52h109v-59q-35 0 -98.5 2t-128.5 2q-68 0 -131.5 -2t-98.5 -2v59h109q49 0 49 52v497q0 135 -61 178q-25 18 -60 31 q-25 8 -82 8q-92 0 -241 -135v-579q0 -51 49 -52h108v-59q-35 0 -98.5 2t-128.5 2q-68 0 -131 -2t-98 -2z" />
<glyph unicode="i" horiz-adv-x="583" d="M184 1290q0 51 37 88q35 35 88.5 35t88 -34.5t34.5 -88t-35 -88.5q-37 -37 -88 -37t-88 37t-37 88zM80 -2v59h108q49 0 50 52v585q0 68 -64 74l-94 10v43l266 88h33v-800q0 -51 49 -52h109v-59q-35 0 -98.5 2t-131.5 2q-66 0 -129 -2t-98 -2z" />
<glyph unicode="j" horiz-adv-x="571" d="M-96 -369q0 39 26 60q29 23 68 22q35 0 82 -43q35 -29 61 -28q33 0 66 28q31 27 43 72q16 70 16 215v737q0 68 -63 74l-94 10v43l266 88h31v-860q0 -80 -25 -196q-25 -113 -78 -187q-106 -139 -274 -139q-57 0 -90 31q-35 30 -35 73zM211 1290q0 51 37 88q35 35 88.5 35 t88 -34.5t34.5 -88t-35 -88.5q-37 -37 -88 -37t-88 37t-37 88z" />
<glyph unicode="k" horiz-adv-x="1155" d="M68 -2v59h108q49 0 49 52v1155q0 66 -63 71l-94 11v45l266 88h33v-1049l358 275q41 33 41 73q0 27 -23 45q-18 16 -53 17h-49v61h6q6 0 17.5 -1t23.5 -1t47 -1t53 -1h84h78q16 0 47 1t43.5 1t21.5 1t14 1h5v-61q-61 -10 -98 -27q-43 -18 -104 -68l-293 -225l338 -362 q45 -47 80 -70q39 -25 100 -31v-59l-5 1q-5 1 -15.5 1h-22.5h-88q-18 0 -45 1t-35 1q-6 0 -35 -1t-49 -1h-98h-23.5t-17.5 -1l-6 -1v59h67q14 0 29 11q10 8 10 26q0 20 -37 64l-260 278l-106 -82v-245q0 -51 49 -52h108v-59q-35 0 -98.5 2t-128.5 2q-68 0 -131 -2t-98 -2z " />
<glyph unicode="l" horiz-adv-x="575" d="M68 -2v59h108q49 0 49 52v1155q0 66 -63 71l-94 11v45l266 88h33v-1370q0 -51 49 -52h108v-59q-35 0 -98.5 2t-128.5 2q-68 0 -131 -2t-98 -2z" />
<glyph unicode="m" horiz-adv-x="1724" d="M74 -2v59h108q49 0 49 52v585q0 68 -63 74l-94 10v43l266 88h33v-145l6 -4q168 156 301 155q123 0 182 -61q47 -51 66 -113l10 -4q74 70 156 123q86 55 168 55q126 0 184 -61q78 -78 78 -215v-530q0 -51 51 -52h106v-59q-35 0 -98 2t-128.5 2t-129 -2t-98.5 -2v59h106 q51 0 51 52v497q0 57 -10 105q-8 39 -45 69q-33 25 -55 33q-31 10 -78 10q-102 0 -256 -145q2 -8 2 -39v-530q0 -51 49 -52h109v-59q-35 0 -98.5 2t-129 2t-129 -2t-100.5 -2v59h109q51 0 51 52v497q0 57 -10 105q-8 39 -45 69q-31 25 -58 33q-31 10 -76 10q-96 0 -241 -133 v-581q0 -51 49 -52h108v-59q-35 0 -98 2t-131 2q-66 0 -129 -2t-98 -2z" />
<glyph unicode="n" horiz-adv-x="1159" d="M74 -2v59h108q49 0 49 52v585q0 68 -63 74l-94 10v43l266 88h33v-147l6 -6q68 68 143 110q86 49 158 49q121 0 190 -61q88 -82 88 -221v-524q0 -51 50 -52h108v-59q-35 0 -98.5 2t-128.5 2q-68 0 -131.5 -2t-98.5 -2v59h109q49 0 49 52v497q0 135 -61 178q-25 18 -60 31 q-25 8 -82 8q-90 0 -241 -135v-579q0 -51 49 -52h108v-59q-35 0 -98 2t-131 2q-66 0 -129 -2t-98 -2z" />
<glyph unicode="o" horiz-adv-x="1079" d="M84 451q0 201 131 331q133 133 326 133q190 0 323 -133q131 -131 131 -331q0 -203 -131 -334q-133 -133 -323 -133q-193 0 -326 133q-131 131 -131 334zM254 451q0 -168 78 -289q76 -119 209 -119q131 0 207 119q78 121 77 289q0 166 -77.5 286.5t-206.5 120.5 q-131 0 -209 -120.5t-78 -286.5z" />
<glyph unicode="p" horiz-adv-x="1110" d="M41 -440h106q51 0 52 51v1083q0 68 -66 74l-92 10v43l264 88h33v-112l8 -6q152 125 281 124q86 0 151 -22q70 -25 111 -66q139 -143 139 -335q0 -213 -102 -357q-111 -152 -318 -151q-47 0 -125 22q-63 18 -139 66l-6 -4v-457q0 -51 49 -51h109v-60q-35 0 -98.5 2t-129 2 t-129 -2t-98.5 -2v60zM338 135q45 -33 121 -61q65 -25 116 -25q61 0 117 24.5t86 67.5q41 57 60 131q20 86 20 146q0 74 -2 98q-2 35 -18 94q-14 53 -47 103q-78 111 -213 110q-119 0 -240 -108v-580z" />
<glyph unicode="q" horiz-adv-x="1083" d="M84 410q0 213 102 356q111 150 318 149q78 0 168 -38q51 -23 71 -23q68 0 99 49h71v-1292q0 -51 52 -51h106v-60q-35 0 -98.5 2t-129 2t-129 -2t-98.5 -2v60h109q49 0 49 51v489l-10 6q-53 -43 -139 -86q-74 -37 -140 -36q-80 0 -151.5 24.5t-110.5 63.5 q-139 143 -139 338zM254 481q0 -74 2 -98q2 -35 18 -94q14 -53 48 -103q76 -111 213 -110q117 0 239 110v578q-51 37 -121 63q-59 23 -116 23q-66 0 -117 -23q-55 -25 -86 -67q-41 -57 -60 -131q-20 -87 -20 -148z" />
<glyph unicode="r" horiz-adv-x="849" d="M74 -2v59h108q49 0 49 52v585q0 68 -63 74l-94 10v43l266 88h33v-200l10 -7q59 76 117 125q102 88 196 88q45 0 74 -28.5t29 -65.5q0 -41 -31 -71q-29 -29 -80 -29q-29 0 -63 20q-25 16 -60 17q-80 0 -192 -131v-518q0 -51 49 -52h108v-59q-35 0 -98 2t-131 2 q-66 0 -129 -2t-98 -2z" />
<glyph unicode="s" horiz-adv-x="837" d="M76 221l41 21q47 -78 88 -111q102 -88 221 -88q102 0 155.5 43t53.5 127q0 74 -49 115q-51 41 -172 78l-51 15t-41 13q-33 10 -78 37q-41 23 -65.5 51.5t-39.5 67.5q-16 45 -16 92q0 111 75.5 172t188.5 61q82 0 123 -20q47 -20 76 -21q43 0 55 41h45l35 -235l-41 -12 q-47 80 -88 116q-80 74 -205 74q-74 0 -123 -37q-51 -39 -51 -96q0 -37 18 -63q18 -29 41 -47.5t64 -36.5q61 -27 67 -29l30 -10.5l42 -14.5q152 -47 219 -106q72 -61 72 -168q0 -119 -92 -192.5t-232 -73.5q-78 0 -143 24q-51 23 -82 23q-18 0 -30.5 -12.5t-18.5 -34.5h-47 z" />
<glyph unicode="t" horiz-adv-x="739" d="M47 836v63q227 18 227 367h72v-367h277q0 -47 -9 -63h-268v-590q0 -170 127 -170q102 0 166 125l37 -25q-31 -82 -84 -135q-59 -57 -156 -57q-102 0 -168 69q-61 63 -61 170v613h-160z" />
<glyph unicode="u" horiz-adv-x="1058" d="M43 834v59l274 14v-616q0 -55 11 -103q8 -43 45 -71q33 -25 55 -33q31 -10 78 -10q86 0 225 121v557q0 45 -30.5 63.5t-102.5 18.5v59l274 14v-757q0 -45 31 -64q35 -20 103 -20v-58l-275 -16v131l-6 4q-158 -145 -285 -145q-126 0 -184 61q-78 78 -78 215v494 q0 45 -30.5 63.5t-104.5 18.5z" />
<glyph unicode="v" horiz-adv-x="1071" d="M16 842v59q33 0 88.5 -2t118.5 -2q66 0 123 2t94 2v-59h-59q-25 0 -39 -11q-20 -14 -20 -28q0 -37 14 -66l233 -569l213 481q33 78 33 127q0 27 -16 45q-18 20 -47 21h-56v59q27 0 74 -2t98.5 -2t98.5 2t73 2v-59h-43q-29 0 -53 -29q-33 -41 -51 -84l-332 -737h-59 l-305 708q-37 84 -68 109q-39 33 -113 33z" />
<glyph unicode="w" horiz-adv-x="1492" d="M16 842v59q33 0 86.5 -2t116.5 -2q68 0 123 2t90 2v-59h-59q-23 0 -35 -11q-16 -12 -16 -28q0 -27 14 -66l192 -542l191 475l-12 30q-29 76 -54 101q-41 41 -121 41v59q33 0 88.5 -2t119 -2t118.5 2t90 2v-59h-65q-25 0 -37 -11q-16 -12 -17 -28q0 -37 15 -66l192 -542 l193 483q12 31 12 94q0 29 -20.5 49.5t-55.5 20.5h-47v59q27 0 74 -2t98 -2t98.5 2t73.5 2v-59h-32q-39 0 -64 -29q-31 -33 -51 -84l-297 -737h-60l-208 592l-240 -592h-59l-252 708q-25 74 -70 109q-39 33 -113 33z" />
<glyph unicode="x" horiz-adv-x="1210" d="M68 -2v59q57 10 98 33q70 43 133 103l252 237l-209 242q-78 90 -127 123q-51 37 -117 47v59q41 0 98.5 -2t125.5 -2q66 0 123 2t100 2v-59h-43q-23 0 -39.5 -14.5t-16.5 -34.5q0 -43 35 -82l166 -191l176 166q39 37 39 76q0 41 -39 61q-31 18 -71 19v59q33 0 88 -2 t112.5 -2t112.5 2t86 2v-59q-57 -12 -110.5 -45t-116.5 -92l-238 -230l262 -301q39 -45 80 -72q59 -39 117 -45v-59q-43 0 -100.5 2t-122.5 2q-68 0 -125.5 -2t-98.5 -2v59h54q22 0 36 13q14 12 15 30q0 41 -33 80l-178 205l-201 -197q-35 -35 -35 -69q0 -25 18.5 -43.5 t45.5 -18.5h61v-59q-41 0 -96 2t-111 2q-53 0 -108 -2t-98 -2z" />
<glyph unicode="y" horiz-adv-x="1101" d="M8 -406q0 47 31 72q33 27 67.5 27t67.5 -21q34 -18 62 -18q40 0 79.5 43t73.5 110l107 213l-291 680q-35 82 -68 109q-39 33 -112 33v59q33 0 88 -2t118 -2q66 0 123.5 2t94.5 2v-59h-60q-25 0 -41 -11q-18 -12 -18 -28q0 -37 14 -66l231 -563l232 475q39 78 39 121 q0 28 -19 49q-18 23 -49 23h-53v59q29 0 78 -2t100 -2q53 0 100.5 2t73.5 2v-59h-39q-31 0 -55 -29q-33 -39 -53 -84l-477 -965q-68 -131 -134 -194q-86 -86 -188 -86q-49 0 -88 29q-35 26 -35 81z" />
<glyph unicode="z" horiz-adv-x="905" d="M72 0v41l573 801h-188q-100 0 -185 -78q-68 -61 -127 -156l-49 23l117 268h618v-39l-575 -803h281q102 0 168 78q45 57 86 135l47 -12l-54 -258h-712z" />
<glyph unicode="{" horiz-adv-x="778" d="M182 442v43q233 0 234 224q0 66 -39 225q-41 168 -41 252q0 129 94 206.5t252 96.5l10 -55q-109 -18 -168 -56q-55 -35 -55 -114q0 -92 37 -238q41 -160 41 -233q0 -145 -64 -224q-66 -82 -164 -102v-4q96 -20 164 -105q63 -78 64 -223q0 -76 -41 -235q-37 -145 -37 -236 q0 -78 55.5 -114.5t167.5 -55.5l-10 -53q-162 18 -252 94q-94 78 -94 209q0 82 41 250q39 160 39 225q-1 223 -234 223z" />
<glyph unicode="|" horiz-adv-x="512" d="M203 -469v1929h106v-1929h-106z" />
<glyph unicode="}" horiz-adv-x="778" d="M88 -506q109 18 168 55q55 35 55 115q0 94 -37 238q-41 160 -41 233q0 145 64 223q68 84 164 105v4q-98 20 -164 102q-63 78 -64 224q0 76 41 235q37 143 37 236q0 78 -55 114.5t-168 55.5l10 55q158 -18 252 -96t94 -207q0 -84 -41 -252q-39 -160 -38 -225 q0 -223 233 -224v-43q-233 0 -233 -223q0 -66 38 -225q41 -168 41 -250q0 -131 -94 -209q-90 -76 -252 -94z" />
<glyph unicode="~" d="M113 455q127 207 307 207q47 0 80 -11q53 -16 65 -22l64 -33q10 -6 28.5 -15.5l26.5 -13.5q35 -14 55 -20q31 -8 64 -8q68 0 110.5 30.5t90.5 96.5l36 -27q-129 -209 -309 -209q-61 0 -102 16q-46 18 -105 50q-109 59 -174 59q-68 0 -112 -33q-43 -31 -91 -96z" />
<glyph unicode="&#xa2;" d="M176 436q0 205 131 342q125 137 297 137q63 0 98 -8l193 555h70l-197 -571q72 -27 127 -84q53 -57 53 -105q0 -43 -22 -65q-25 -25 -64 -25q-33 0 -61 25q-25 23 -35 59q-16 63 -37 90l-229 -671q66 -39 153 -39q72 0 142 41q68 41 108 96l37 -37q-49 -76 -133 -133 q-86 -59 -182 -59q-82 0 -162 26l-197 -567h-69l204 594q-55 31 -88 59q-137 119 -137 340zM346 457q0 -193 98 -297l232 671q-20 10 -51 11q-129 0 -203 -109q-76 -110 -76 -276z" />
<glyph unicode="&#xa3;" horiz-adv-x="1536" d="M80 150q0 82 72 137q70 55 161 55q59 0 125 -12q41 -8 103 -27q29 -8 110 -41q27 70 27 123q0 74 -12 131q-8 43 -45 148h-408v79h377q-43 111 -60 177q-18 71 -18 159q0 106 59.5 198.5t162 152t216.5 59.5q96 0 174 -27q84 -29 131 -67q49 -39 78 -88q29 -47 29 -92.5 t-33 -77.5q-31 -31 -72 -31q-45 0 -71 24q-29 25 -41 60q-14 45 -20.5 100.5t-45.5 94t-123 38.5q-109 0 -190.5 -84t-81.5 -196q0 -94 10 -148q14 -72 37 -161q16 -61 23 -91h401v-79h-387q14 -100 14 -197q0 -127 -59 -231q211 -82 362 -82q66 0 121 12q57 12 101 39 q46 28 73 49q35 27 72 61l39 -30q-34 -65 -74 -117q-35 -47 -94 -98q-55 -49 -119 -72q-74 -27 -139 -27q-104 0 -197 43q-94 43 -211 127q-63 -74 -163 -123q-98 -47 -201 -47q-86 0 -152 49q-61 47 -61 130zM152 160q0 -59 47 -97q43 -35 112 -34q84 0 160 41 q72 39 131 110q-90 61 -139 82q-61 25 -150 25q-61 0 -112 -35q-49 -34 -49 -92z" />
<glyph unicode="&#xa5;" d="M18 1403v59q31 0 86.5 -2t120.5 -2q68 0 125.5 2t89.5 2v-59h-63q-18 0 -37 -14q-16 -12 -16 -31q0 -31 14 -60l266 -546l244 479q31 61 31 104q0 29 -19 47q-20 20 -49 21h-53v59q31 0 82 -2t106 -2q53 0 104.5 2t82.5 2v-59h-46q-8 0 -36 -8q-16 -4 -35 -23 q-33 -33 -60 -84l-235 -448h252v-97h-303l-29 -51v-139h332v-96h-332v-346q0 -51 51 -52h109v-59q-35 0 -98.5 2t-131.5 2q-66 0 -129 -2t-98 -2v59h109q49 0 49 52v346h-336v96h336v94l-47 96h-289v97h240l-207 420q-39 76 -72 106q-31 27 -47 31q-25 6 -62 6z" />
<glyph unicode="&#xa9;" horiz-adv-x="1634" d="M59 729q0 158 59.5 301.5t158 241.5t242 157.5t298.5 59.5q158 0 301.5 -59.5t241.5 -157.5t157.5 -241.5t59.5 -301.5q0 -156 -59.5 -299t-157.5 -241.5t-241.5 -158t-301.5 -59.5q-156 0 -299 59.5t-241.5 158t-158 241.5t-59.5 299zM131 729q0 -182 92 -348 q88 -158 248 -252q156 -92 346.5 -92t347.5 92q160 94 248 252q90 162 90 348q0 188 -90 350q-88 158 -248 252q-158 92 -348 92t-346 -92q-160 -94 -248 -252q-92 -166 -92 -350zM373 731q0 111 39 201q43 96 102 151q66 59 143.5 92t165.5 33q76 0 146 -28q55 -25 80 -25 q29 0 41 53h40l48 -239l-48 -19q-133 188 -290 189q-125 0 -211 -108.5t-86 -297.5q0 -94 18 -164q18 -72 49 -114q25 -35 72 -68q39 -27 78 -37q33 -8 78 -8q96 0 174 49q80 51 127 119l28 -25q-47 -84 -145 -151q-94 -63 -199 -64q-102 0 -194 41q-88 39 -144 107 q-51 63 -84 147q-28 74 -28 166z" />
<glyph unicode="&#xad;" horiz-adv-x="899" d="M135 358v131h629v-131h-629z" />
<glyph unicode="&#xae;" horiz-adv-x="1634" d="M59 729q0 158 59.5 301.5t158 241.5t242 157.5t298.5 59.5q158 0 301.5 -59.5t241.5 -157.5t157.5 -241.5t59.5 -301.5q0 -156 -59.5 -299t-157.5 -241.5t-241.5 -158t-301.5 -59.5q-156 0 -299 59.5t-241.5 158t-158 241.5t-59.5 299zM131 729q0 -182 92 -348 q88 -158 248 -252q156 -92 346.5 -92t347.5 92q160 94 248 252q90 162 90 348q0 188 -90 350q-88 158 -248 252q-158 92 -348 92t-346 -92q-160 -94 -248 -252q-92 -166 -92 -350zM362 285v59h107q51 0 51 49v668q0 35 -18.5 53.5t-57.5 18.5q-33 0 -82 -5v60q217 16 340 16 q111 0 187 -10q59 -8 129 -43q61 -31 92 -82q31 -53 31 -108q0 -115 -115 -187q-63 -39 -143 -53v-6l227 -275q37 -45 68 -63q47 -33 110 -33v-57h-248l-262 395q-10 14 -20 20q-6 4 -33 5h-66v-314q0 -49 52 -49h106v-59q-35 0 -98.5 2t-129 2t-129 -2t-98.5 -2zM659 764 h127q98 0 155.5 45t57.5 139q0 104 -92 160q-59 33 -162 33q-40 0 -86 -6v-371z" />
<glyph unicode="&#xb4;" horiz-adv-x="878" d="M397 1030l121 334q47 125 119 125q33 0 55.5 -22.5t22.5 -51.5q0 -43 -66 -131l-207 -276z" />
<glyph unicode="&#x2ca;" horiz-adv-x="878" d="M397 1030l121 334q47 125 119 125q33 0 55.5 -22.5t22.5 -51.5q0 -43 -66 -131l-207 -276z" />
<glyph unicode="&#x131;" horiz-adv-x="583" d="M80 -2v59h108q49 0 50 52v585q0 68 -64 74l-94 10v43l266 88h33v-800q0 -51 49 -52h109v-59q-35 0 -98.5 2t-131.5 2q-66 0 -129 -2t-98 -2z" />
<glyph unicode="&#x237;" horiz-adv-x="571" d="M-96 -369q0 39 26 60q29 23 68 22q35 0 82 -43q35 -29 61 -28q33 0 66 28q31 27 43 72q16 70 16 215v737q0 68 -63 74l-94 10v43l266 88h31v-860q0 -80 -25 -196q-25 -113 -78 -187q-106 -139 -274 -139q-57 0 -90 31q-35 30 -35 73z" />
<glyph unicode="&#x2d9;" horiz-adv-x="878" d="M315 1206q0 51 37 88q35 35 88.5 35t88 -34.5t34.5 -88t-35 -88.5q-37 -37 -88 -37t-88 37t-37 88z" />
<glyph unicode="&#x2000;" horiz-adv-x="804" />
<glyph unicode="&#x2001;" horiz-adv-x="1611" />
<glyph unicode="&#x2002;" horiz-adv-x="804" />
<glyph unicode="&#x2003;" horiz-adv-x="1611" />
<glyph unicode="&#x2004;" horiz-adv-x="536" />
<glyph unicode="&#x2005;" horiz-adv-x="401" />
<glyph unicode="&#x2006;" horiz-adv-x="266" />
<glyph unicode="&#x2007;" horiz-adv-x="266" />
<glyph unicode="&#x2008;" horiz-adv-x="200" />
<glyph unicode="&#x2009;" horiz-adv-x="321" />
<glyph unicode="&#x200a;" horiz-adv-x="88" />
<glyph unicode="&#x2010;" horiz-adv-x="899" d="M135 358v131h629v-131h-629z" />
<glyph unicode="&#x2011;" horiz-adv-x="899" d="M135 358v131h629v-131h-629z" />
<glyph unicode="&#x2012;" horiz-adv-x="899" d="M135 358v131h629v-131h-629z" />
<glyph unicode="&#x2013;" horiz-adv-x="1118" d="M72 444v97h977v-97h-977z" />
<glyph unicode="&#x2014;" horiz-adv-x="2174" d="M72 444v97h2031v-97h-2031z" />
<glyph unicode="&#x2018;" horiz-adv-x="526" d="M117 1128q0 57 22 117q25 63 66 115q66 78 174 129l22 -39q-88 -45 -137 -100q-59 -61 -59 -142q0 -51 33 -78q20 -16 71 -20q39 -4 64 -29q27 -27 26 -67q0 -45 -32 -78q-31 -31 -78 -31q-72 0 -121 62q-51 63 -51 161z" />
<glyph unicode="&#x2019;" horiz-adv-x="526" d="M127 944q88 45 137 100q59 61 60 142q0 51 -33 78q-20 16 -72 20q-39 4 -63 29q-27 27 -27 67q0 45 33 78q31 31 78 31q72 0 120 -62q51 -63 52 -161q0 -57 -23 -117q-25 -63 -65 -115q-66 -78 -174 -129z" />
<glyph unicode="&#x201c;" horiz-adv-x="923" d="M117 1128q0 57 22 117q25 63 66 115q66 78 174 129l22 -39q-88 -45 -137 -100q-59 -61 -59 -142q0 -51 33 -78q20 -16 71 -20q39 -4 64 -29q27 -27 26 -67q0 -45 -32 -78q-31 -31 -78 -31q-72 0 -121 62q-51 63 -51 161zM512 1128q0 57 22 117q25 63 66 115 q66 78 174 129l22 -39q-88 -45 -137 -100q-59 -61 -59 -142q0 -51 33 -78q20 -16 71 -20q39 -4 64 -29q27 -27 26 -67q0 -45 -32 -78q-31 -31 -78 -31q-72 0 -121 62q-51 63 -51 161z" />
<glyph unicode="&#x201d;" horiz-adv-x="923" d="M127 944q88 45 137 100q59 61 60 142q0 51 -33 78q-20 16 -72 20q-39 4 -63 29q-27 27 -27 67q0 45 33 78q31 31 78 31q72 0 120 -62q51 -63 52 -161q0 -57 -23 -117q-25 -63 -65 -115q-66 -78 -174 -129zM522 944q88 45 137 100q59 61 60 142q0 51 -33 78q-20 16 -72 20 q-39 4 -63 29q-27 27 -27 67q0 45 33 78q31 31 78 31q72 0 120 -62q51 -63 52 -161q0 -57 -23 -117q-25 -63 -65 -115q-66 -78 -174 -129z" />
<glyph unicode="&#x2022;" horiz-adv-x="1101" d="M324 688q0 98 65 164q63 63 164 63q98 0 162 -63q66 -66 65.5 -164t-65.5 -164q-63 -63 -162 -63q-100 0 -164 63q-65 66 -65 164z" />
<glyph unicode="&#x2026;" horiz-adv-x="1583" d="M135 104q0 53 37 90t92 37q53 0 90 -36.5t37 -90.5q0 -55 -37 -92t-90 -37q-55 0 -92 37t-37 92zM663 104q0 53 37 90t92 37q53 0 90 -36.5t37 -90.5q0 -55 -37 -92t-90 -37q-55 0 -92 37t-37 92zM1192 104q0 53 37 90t92 37q53 0 90 -36.5t37 -90.5q0 -55 -37 -92 t-90 -37q-55 0 -92 37t-37 92z" />
<glyph unicode="&#x202f;" horiz-adv-x="321" />
<glyph unicode="&#x205f;" horiz-adv-x="401" />
<glyph unicode="&#x20ac;" horiz-adv-x="1599" d="M111 807l16 111h197q55 258 245 413q193 158 430 158q144 0 265 -55q125 -57 198 -129l-41 -119q-109 100 -202 143q-100 47 -220 47q-197 0 -344 -129q-145 -127 -198 -329h870l-37 -111h-854q-4 -45 -4 -78q0 -31 4 -76h801l-39 -110h-741q53 -203 198 -330 q147 -129 344 -129q229 0 428 190v-139q-82 -74 -188 -119t-240 -45q-238 0 -430 158q-190 156 -245 414h-205l16 110h172q-4 49 -4 76q0 29 4 78h-196z" />
<glyph unicode="&#x2122;" horiz-adv-x="2279" d="M61 1227l50 233h802l50 -233l-41 -10q-41 80 -93 126q-63 61 -139 62h-108v-737q0 -49 51 -50h106v-61q-33 0 -96 2t-129 2q-63 0 -129 -2t-100 -2v61h106q51 0 51 50v737h-108q-76 0 -139 -62q-51 -47 -93 -126zM1047 555v63h65q39 0 64 27q27 31 26 66v643q0 51 -49 51 h-106v55h307l268 -659l266 659h318v-55h-109q-49 0 -49 -51v-686q0 -49 49 -50h109v-61q-33 0 -96.5 2t-129 2t-131 -2t-100.5 -2v61h109q51 0 51 50v630h-19l-293 -727h-30l-293 723h-8v-583q0 -35 26 -66q25 -27 64 -27h65v-63h-82h-104h-105h-83z" />
<glyph unicode="&#xe000;" horiz-adv-x="900" d="M0 900h900v-900h-900v900z" />
<glyph unicode="&#xfb01;" horiz-adv-x="1171" d="M74 836q0 47 8 63h158q0 82 36 193q37 109 105 198.5t162 136.5q98 49 194 50q102 0 166 -51.5t64 -106.5q0 -35 -27 -61.5t-55 -26.5q-55 0 -117 72q-55 61 -129 61q-49 0 -96 -27q-49 -27 -88 -88q-33 -49 -53.5 -118.5t-20.5 -157.5v-74h379q96 0 174 10h33v-800 q0 -51 49 -52h108v-59q-35 0 -98 2t-129 2q-68 0 -131.5 -2t-97.5 -2v59h108q49 0 49 52v661q0 37 -14 51.5t-51 14.5h-379v-727q0 -51 49 -52h109v-59q-35 0 -98.5 2t-131.5 2q-66 0 -129 -2t-98 -2v59h108q49 0 50 52v727h-166z" />
<glyph unicode="&#xfb02;" horiz-adv-x="1171" d="M74 836q0 47 8 63h158q0 82 36 193q37 109 105 198.5t162 136.5q98 49 194 50q74 0 131 -29l66 29h33v-1368q0 -51 49 -52h108v-59q-35 0 -98 2t-129 2q-68 0 -131.5 -2t-97.5 -2v59h108q49 0 49 52v727h-444v-727q0 -51 49 -52h109v-59q-35 0 -98.5 2t-131.5 2 q-66 0 -129 -2t-98 -2v59h108q49 0 50 52v727h-166zM381 899h444v350q-39 10 -98 64q-53 47 -106 47q-95 0 -166 -111q-33 -49 -53.5 -118.5t-20.5 -157.5v-74z" />
<glyph unicode="&#xfb03;" horiz-adv-x="1757" d="M74 836q0 47 8 63h158v68q0 77 18 166q18 90 61 157q61 96 140 140q84 47 180 47q82 0 125 -37t43 -90q0 -39 -26.5 -61.5t-65.5 -22.5q-47 0 -92 57q-35 41 -82 41q-82 0 -127 -86q-33 -59 -33 -217v-162h444q0 82 37 193q37 109 105 198q66 88 164 137.5t192 49.5 q104 0 168 -52q61 -49 61 -106q0 -37 -24 -62q-27 -27 -58 -26q-55 0 -116 72q-55 61 -129 61q-49 0 -97 -27q-49 -27 -88 -88q-33 -49 -53 -118.5t-20 -157.5v-74h379q96 0 174 10h32v-800q0 -51 50 -52h108v-59q-35 0 -98.5 2t-128.5 2q-68 0 -131.5 -2t-98.5 -2v59h109 q49 0 49 52v661q0 37 -14.5 51.5t-50.5 14.5h-379v-727q0 -51 49 -52h108v-59q-35 0 -98 2t-129 2q-68 0 -131.5 -2t-97.5 -2v59h108q49 0 49 52v727h-444v-727q0 -51 49 -52h109v-59q-35 0 -98.5 2t-131.5 2q-66 0 -129 -2t-98 -2v59h108q49 0 50 52v727h-166z" />
<glyph unicode="&#xfb04;" horiz-adv-x="1757" d="M74 836q0 47 8 63h158v68q0 77 18 166q18 90 61 157q61 96 140 140q84 47 180 47q82 0 125 -37t43 -90q0 -39 -26.5 -61.5t-65.5 -22.5q-47 0 -92 57q-35 41 -82 41q-82 0 -127 -86q-33 -59 -33 -217v-162h444q0 82 37 193q37 109 105 198q66 88 164 137.5t192 49.5 q74 0 131 -29l66 29h32v-1368q0 -51 50 -52h108v-59q-35 0 -98.5 2t-128.5 2q-68 0 -131.5 -2t-98.5 -2v59h109q49 0 49 52v727h-444v-727q0 -51 49 -52h108v-59q-35 0 -98 2t-129 2q-68 0 -131.5 -2t-97.5 -2v59h108q49 0 49 52v727h-444v-727q0 -51 49 -52h109v-59 q-35 0 -98.5 2t-131.5 2q-66 0 -129 -2t-98 -2v59h108q49 0 50 52v727h-166zM967 899h444v350q-35 8 -96 64q-53 47 -109 47q-95 0 -166 -111q-33 -49 -53 -118.5t-20 -157.5v-74z" />
</font>
</defs>
</svg>
